<?xml version="1.0" encoding="UTF-8"?>
<svg id="_圖層_1" data-name="圖層 1" xmlns="http://www.w3.org/2000/svg" viewBox="0 0 283.46 283.46">
  <defs>
    <style>
      .cls-1 {
        fill: #f8f8f6;
      }

      .cls-1, .cls-2, .cls-3, .cls-4, .cls-5, .cls-6, .cls-7, .cls-8, .cls-9, .cls-10 {
        stroke-width: 0px;
      }

      .cls-2 {
        fill: #1d251c;
      }

      .cls-3 {
        fill: #faf9f9;
      }

      .cls-4 {
        fill: #0b6d3b;
      }

      .cls-5 {
        fill: #f4f4f3;
      }

      .cls-6 {
        fill: #d9432a;
      }

      .cls-7 {
        fill: #c2cb20;
      }

      .cls-8 {
        fill: #312b1d;
      }

      .cls-9 {
        fill: #1e1d18;
      }

      .cls-10 {
        fill: #f9f9f9;
      }
    </style>
  </defs>
  <path class="cls-9" d="m226.32,109.03c11.39-8.08,17.24-7.37,24.2,3.35,1.58,2.44,3.7,2.72,5.56,3.87,6.84,4.22,8.87,26.46,2.29,30.82-8.66,5.74-16.07.96-22.97-4.12-4.48-3.29-8.31-4.84-13.71-1.29-2.82,1.85-3.2,4.28-3.92,6.55-4.85,15.29-12.42,29.06-22.33,41.28,1.29,1.39,2.75,2.53,3.64,4.01,3.91,6.5,7.43,10.01,15.8,4.4,7.36-4.94,14.48.8,19.82,6.12,5.16,5.14,5.8,11.84,1.94,18.16-6.49,10.61-16.51,17.3-27.54,22.25-5.5,2.47-13.06-2.99-13.73-10.7-1.03-11.84-10.24-16.12-17.88-22.03-1.04-.81-3.23-1.45-4.14-.9-7.47,4.46-15.65,7.2-23.64,10.41-2.53,1.02-1.62,3.58-1.88,5.56-.38,2.89,1.45,3.32,3.77,3.74,9.12,1.65,13.9,7.32,14.83,16.46,1.38,13.6-3.88,19.49-17.63,19.7-6.95.11-13.67-1.02-20.3-3.12-11.74-3.72-15.48-11.14-8.58-21.38,4.45-6.6,2.25-12.44,2.17-18.75-.05-4.15-3.44-4.34-6.16-5.28-8.19-2.8-16.71-5.39-23.43-10.79-10.51-8.45-23.01-8.71-35.23-10.68-3.08-.5-4.14,1.82-5.98,3.19-8.2,6.1-16.9,3.38-20.62-6.4-.32-.84-.28-2.16-.86-2.51-11.02-6.66-7.06-16.22-5.03-25.41.45-2.03.3-5.07,1.57-5.9,9.05-5.91,2.55-11.34-.26-16.74-14-26.95-11.6-64.04,15.55-84.19,17.31-12.85,36.07-13.46,55.07-5.5,7.12,2.99,10.21,1.41,14.38-4.15,11.22-14.97,25.49-26.85,43.75-31.37,32.28-7.98,58.14,8.02,67.5,40.05,2.44,8.37,4.15,16.83,4.03,25.62-.11,8.4-.02,16.8-.02,25.68ZM37.92,184.38c-2.56,4.62-2.89,8.46,1.58,11.41,2.76,1.82,6.17,2.49,7.87-.67,3.7-6.88,9.26-5.11,14.55-3.67,6.24,1.71,12.5.79,18.75,1.09,14.03,10.93,29.62,18.6,47.02,22.46.27,3.88.51,7.76.82,11.64.54,6.77,3.5,13.55-3.66,19.47-2.81,2.32-4.8,8.5,1.94,10.7,7.1,2.31,14.38,4.23,21.94,4.28,6.88.04,11.69-2.63,12.1-10.24.43-7.99-4.2-14.89-11.3-14.45-8.63.53-9.26-3.5-8.16-9.97.6-3.53,1.09-7.08,1.63-10.62,6.94-1.08,13.48-3.26,19.48-6.95.73-.52,1.46-1.03,2.19-1.55,0,0,.08-.05.08-.05,3.45-1.32,6.89-2.64,10.34-3.96,11.33,7.74,24.98,13.25,26.7,29.86.29,2.76,2.16,7.62,7.38,4.67,7.59-4.28,14.87-9,20.5-15.82,5.05-6.12,3.83-11.6-2.05-16.3-6.8-5.43-13.04-3.81-17.82,2.65-3.33,4.5-4.91,3.63-7.38-.52-3.86-6.47-9.34-11.63-14.79-16.77,11.59-16.4,21.67-33.58,27.56-52.95,8.52-5.58,16.88-7.36,24.89.96.81.84,1.91,1.46,2.97,1.99,4.01,2,8.68,5.05,12.12.36,4.12-5.62-3.73-5.99-5.22-9.22,2.07-2.59,7.64-3.13,5.89-7.7-1.31-3.42-4.59-4.84-8.94-2.99-1.68.71-2.6-1.66-1.69-4.24,1.43-4.04-1.91-5.88-4.96-7.23-3.24-1.43-6.56-.37-7.49,2.78-2.27,7.69-8.26,6.19-13.69,6.42.08-2.98-.09-5.98.27-8.93,2.53-20.5,1.78-40.65-6.27-60.03-8.84-21.28-31.16-32.62-53.53-27.56-20.66,4.67-34.38,18.73-47.14,34.16-2.09,2.52-3.41,5.77-7.34,5.93-5.62-2.06-11.14-4.45-16.87-6.11-21.77-6.32-40.77.1-53.95,18.26-13.16,18.14-13.72,37.72-5.98,58.06,6.44,16.92,18.72,29.78,30.24,43.17-5.31.61-8.11-3.24-11.02-6.52-2.8-3.16-5.57-6.21-9.36-8.21-2.74-1.45-6.52,1.2-4.53,2.79,7.89,6.3,22.98,9.87-3,15"/>
  <path class="cls-7" d="m58.51,176.23c-11.52-13.38-23.8-26.24-30.24-43.17-7.74-20.34-7.18-39.92,5.98-58.06,13.18-18.16,32.18-24.59,53.95-18.26,5.73,1.67,11.25,4.05,16.87,6.11,2,2.89-.39,4.98-1.3,7.38-1.9,5.01-3.98,9.99-5.41,15.15-1.25,4.5-.94,9.31,3.36,12.15,3.99,2.64,8.69,2.35,12.81-.04,2.8-1.62,5.41-3.76,7.65-6.11,9.58-10.06,9.52-10.13,18.68,1.07.76.92,1.37,1.96,2.14,2.88,12.56,15.09,20.33,32.9,28.71,50.37l-.04-.08c1.16,5.44,2.31,10.87,3.47,16.31-7.11-1.28-13.1.09-16.56,7.18-1.55,3.18-1.97,6.27,1.13,8.9,5.35,4.54,10.9,3.96,16.57.68-.15,11.01-4.63,20.28-11.51,28.59,0,0-.08.05-.08.05-.73.52-1.46,1.03-2.19,1.55-6.01,3.69-12.55,5.87-19.48,6.95,1.59-8.38-1.79-14.04-9.22-14.35-9.85-.41-4.35,7.62-5.99,11.74-.21.52-.07,1.18-.1,1.78-17.4-3.87-32.99-11.53-47.02-22.46,5.43-1.07,6.71-3.92,4.01-8.79-1.93-3.48-4.79-5.91-7.72-8.49-6.65-5.87-12.28,1.39-18.45.97Zm84.58-23.63c-.58-6.76-4.75-8.04-9.01-8.12-4.5-.09-8.17,2.44-9.91,6.65-1.62,3.91-3.5,8.24,1.27,11.96,4.44-13.9,8.56-16.5,17.65-10.5Z"/>
  <path class="cls-4" d="m175.12,161.94c-1.16-5.44-2.31-10.87-3.47-16.31,1.32.34,2.97,1.56,3.66-.63,1.38-4.37,2.96-8.31,7.83-10.15,5.17-1.95,7.37,3.16,12.14,5.53-2.23-8.25-6.59-11.87-13.36-10.81-8.99,1.41-10.87,8.18-10.23,16.14-8.38-17.47-16.15-35.28-28.71-50.37-.76-.92-1.38-1.96-2.14-2.88-9.16-11.19-9.1-11.13-18.68-1.07-2.23,2.35-4.85,4.48-7.65,6.11-4.12,2.39-8.81,2.68-12.81.04-4.3-2.84-4.61-7.65-3.36-12.15,1.43-5.15,3.51-10.13,5.41-15.15.91-2.4,3.3-4.49,1.3-7.38,3.93-.15,5.26-3.4,7.34-5.92,12.76-15.43,26.48-29.48,47.14-34.16,22.37-5.06,44.69,6.28,53.53,27.56,8.05,19.39,8.8,39.53,6.27,60.03-.36,2.94-.19,5.95-.27,8.93-1.29,6.29-2.58,12.57-3.87,18.86-5.89,19.37-15.96,36.55-27.56,52.95-4.18,4.08-8.37,8.15-12.55,12.22-3.45,1.32-6.89,2.64-10.34,3.96,6.88-8.31,11.36-17.58,11.5-28.58,5.31-5.96,5.57-11.6-1.13-16.77Z"/>
  <path class="cls-3" d="m127.68,215.01c.02-.6-.11-1.26.1-1.78,1.64-4.12-3.86-12.15,5.99-11.74,7.44.31,10.82,5.97,9.22,14.35-.54,3.54-1.03,7.09-1.63,10.61-1.1,6.47-.47,10.5,8.16,9.97,7.1-.44,11.73,6.46,11.3,14.45-.41,7.61-5.22,10.28-12.1,10.24-7.56-.05-14.84-1.97-21.94-4.28-6.73-2.19-4.74-8.37-1.94-10.7,7.16-5.93,4.19-12.7,3.66-19.47-.31-3.88-.55-7.76-.82-11.64Z"/>
  <path class="cls-10" d="m175.09,203.33c4.18-4.07,8.37-8.15,12.55-12.22,5.45,5.13,10.93,10.29,14.78,16.76,2.47,4.15,4.05,5.02,7.38.52,4.78-6.46,11.01-8.08,17.82-2.65,5.88,4.7,7.1,10.18,2.05,16.3-5.63,6.82-12.91,11.53-20.5,15.82-5.22,2.95-7.1-1.91-7.38-4.67-1.72-16.61-15.37-22.12-26.7-29.86Z"/>
  <path class="cls-1" d="m58.51,176.23c6.16.42,11.79-6.84,18.45-.97,2.93,2.58,5.79,5.02,7.72,8.49,2.7,4.88,1.42,7.72-4.01,8.79-6.25-.31-12.51.61-18.75-1.09-5.29-1.45-10.86-3.22-14.55,3.67-1.7,3.16-5.11,2.49-7.87.67-4.47-2.94-4.14-6.79-1.58-11.41-11.39.67-11.53-10.85-6.32-11.1,5.05-.24-.65-.92,0-9,.13-1.66,4.5-4.12,6.53-2.79,3.58,2.36,6.56,5.05,9.36,8.21,2.91,3.28,5.71,7.13,11.02,6.52Z"/>
  <path class="cls-5" d="m215.2,138.15c1.29-6.29,2.58-12.57,3.87-18.86,5.44-.23,11.43,1.28,13.69-6.42.93-3.15,4.24-4.21,7.49-2.78,3.06,1.35,6.39,3.2,4.96,7.23-.91,2.58,0,4.95,1.69,4.24,4.36-1.85,7.63-.43,8.94,2.99,1.75,4.57-3.82,5.1-5.89,7.7,1.48,3.23,9.34,3.6,5.22,9.22-3.44,4.69-8.11,1.64-12.12-.36-1.06-.53-2.16-1.15-2.97-1.99-8.01-8.32-16.37-6.54-24.89-.96Z"/>
  <path class="cls-4" d="m162.48,208.89c.73-.52,1.46-1.03,2.19-1.55-.73.52-1.46,1.03-2.19,1.55Z"/>
  <path class="cls-6" d="m175.12,161.94c6.7,5.17,6.43,10.8,1.13,16.77-5.66,3.27-11.21,3.85-16.56-.69-3.1-2.63-2.68-5.72-1.13-8.9,3.46-7.09,9.45-8.46,16.56-7.18Z"/>
  <path class="cls-8" d="m143.09,152.6c-9.09-6-13.21-3.41-17.65,10.5-4.76-3.72-2.88-8.05-1.27-11.96,1.74-4.21,5.41-6.74,9.91-6.65,4.26.08,8.43,1.36,9.01,8.12Z"/>
  <path class="cls-2" d="m171.69,145.71c-.63-7.96,1.25-14.73,10.23-16.14,6.76-1.06,11.13,2.56,13.36,10.81-4.77-2.37-6.97-7.48-12.14-5.53-4.87,1.83-6.45,5.78-7.83,10.15-.69,2.19-2.33.97-3.66.63,0,0,.04.08.04.08Z"/>
</svg>